<svg width="20.000000" height="19.000000" viewBox="0 0 20 19" fill="none" xmlns="http://www.w3.org/2000/svg" xmlns:xlink="http://www.w3.org/1999/xlink">
	<desc>
			Created with Pixso.
	</desc>
	<defs/>
	<path d="M10 0C4.47501 0 0 4.36167 0 9.74107C0 14.0457 2.86501 17.6962 6.83749 18.9832C7.33749 19.0749 7.52083 18.7734 7.52083 18.5148C7.52083 18.2835 7.5125 17.6706 7.50833 16.8585C4.72667 17.4459 4.14 15.5517 4.14 15.5517C3.685 14.4274 3.0275 14.1267 3.0275 14.1267C2.12167 13.5228 3.0975 13.5352 3.0975 13.5352C4.10167 13.603 4.62917 14.5389 4.62917 14.5389C5.52083 16.0283 6.97 15.5979 7.54167 15.3493C7.63167 14.719 7.88916 14.2903 8.175 14.0466C5.95416 13.8029 3.62 12.9652 3.62 9.23303C3.62 8.16988 4.00751 7.30085 4.64917 6.61934C4.53667 6.37317 4.19917 5.38271 4.73666 4.04116C4.73666 4.04116 5.57417 3.78012 7.48666 5.03988C8.28667 4.82345 9.13667 4.71606 9.98666 4.71111C10.8367 4.71606 11.6867 4.82345 12.4867 5.03988C14.3867 3.78011 15.2242 4.04115 15.2242 4.04115C15.7617 5.38271 15.4242 6.37316 15.3242 6.61933C15.9617 7.30084 16.3492 8.16988 16.3492 9.23303C16.3492 12.9752 14.0117 13.7988 11.7867 14.0383C12.1367 14.3307 12.4617 14.928 12.4617 15.8408C12.4617 17.1443 12.4492 18.1918 12.4492 18.5082C12.4492 18.7635 12.6242 19.0683 13.1367 18.9708C17.1375 17.692 20 14.0391 20 9.74107C20 4.36167 15.5225 0 10 0Z" fill="#212121" fill-opacity="1.000000" fill-rule="nonzero"/>
</svg>
