<svg width="20.765930" height="23.437500" viewBox="0 0 20.7659 23.4375" fill="none" xmlns="http://www.w3.org/2000/svg" xmlns:xlink="http://www.w3.org/1999/xlink">
	<desc>
			Created with Pixso.
	</desc>
	<defs/>
	<path id="Vector" d="M17.5301 18.3645L16.8801 18.7981L18.4105 21.0938L1.1203 21.0938L2.94336 18.3594L12.868 18.3594L12.868 17.5781L2.73438 17.5781C2.6701 17.5781 2.60675 17.594 2.55011 17.6243C2.49341 17.6547 2.44507 17.6985 2.40936 17.752L0.0656128 21.2676C0.0229492 21.3318 0.00012207 21.4072 0 21.4844L0 22.6562C0 22.8634 0.0823364 23.0621 0.228821 23.2086C0.375305 23.3552 0.574036 23.4375 0.78125 23.4375L18.75 23.4375C18.9572 23.4375 19.1559 23.3552 19.3024 23.2086C19.4489 23.0621 19.5312 22.8634 19.5312 22.6562L19.5312 21.4844C19.5311 21.4072 19.5083 21.3318 19.4656 21.2676L17.5301 18.3645ZM0.78125 22.6562L0.78125 21.875L18.75 21.875L18.75 22.6562L0.78125 22.6562Z" fill="#000000" fill-opacity="1.000000" fill-rule="nonzero"/>
	<path id="Vector" d="M17.5781 0L1.95312 0C1.64264 0.000976562 1.34509 0.124634 1.12549 0.344238C0.905945 0.563843 0.782166 0.861328 0.78125 1.17188L0.78125 11.3281C0.782166 11.6387 0.905945 11.9362 1.12549 12.1558C1.34509 12.3754 1.64264 12.499 1.95312 12.5L7.42188 12.5L7.42188 14.0625L5.85938 14.0625C5.7558 14.0625 5.65643 14.1036 5.58319 14.1769C5.50989 14.2501 5.46875 14.3495 5.46875 14.4531L5.46875 16.0156C5.46875 16.1193 5.50989 16.2186 5.58319 16.2919C5.65643 16.3651 5.7558 16.4062 5.85938 16.4062L13.6719 16.4062C13.7755 16.4062 13.8748 16.3651 13.9481 16.2919C14.0214 16.2186 14.0625 16.1193 14.0625 16.0156L14.0625 14.4531C14.0625 14.3495 14.0214 14.2501 13.9481 14.1769C13.8748 14.1036 13.7755 14.0625 13.6719 14.0625L12.1094 14.0625L12.1094 12.5L17.5781 12.5C17.8886 12.499 18.1862 12.3754 18.4058 12.1558C18.6253 11.9362 18.7491 11.6387 18.75 11.3281L18.75 1.17188C18.7491 0.861328 18.6253 0.563843 18.4058 0.344238C18.1862 0.124634 17.8886 0.000976562 17.5781 0ZM13.2812 14.8438L13.2812 15.625L6.25 15.625L6.25 14.8438L13.2812 14.8438ZM8.20312 14.0625L8.20312 12.5L11.3281 12.5L11.3281 14.0625L8.20312 14.0625ZM17.9688 11.3281C17.9688 11.4318 17.9276 11.5311 17.8543 11.6044C17.7811 11.6776 17.6817 11.7188 17.5781 11.7188L1.95312 11.7188C1.84955 11.7188 1.75018 11.6776 1.67694 11.6044C1.60364 11.5311 1.5625 11.4318 1.5625 11.3281L1.5625 10.1562L17.9688 10.1562L17.9688 11.3281ZM17.9688 9.375L1.5625 9.375L1.5625 1.17188C1.5625 1.06824 1.60364 0.968872 1.67694 0.89563C1.75018 0.822388 1.84955 0.78125 1.95312 0.78125L17.5781 0.78125C17.6817 0.78125 17.7811 0.822388 17.8543 0.89563C17.9276 0.968872 17.9688 1.06824 17.9688 1.17188L17.9688 9.375Z" fill="#000000" fill-opacity="1.000000" fill-rule="nonzero"/>
	<path id="Vector" d="M15.625 10.5469L16.4062 10.5469L16.4062 11.3281L15.625 11.3281L15.625 10.5469Z" fill="#000000" fill-opacity="1.000000" fill-rule="nonzero"/>
	<path id="Vector" d="M6.25 8.59375L7.8125 8.59375C7.91608 8.59375 8.01544 8.55261 8.08868 8.47937C8.16199 8.40613 8.20312 8.30676 8.20312 8.20312L8.20312 7.8125L11.3281 7.8125L11.3281 8.20312C11.3281 8.30676 11.3693 8.40613 11.4426 8.47937C11.5158 8.55261 11.6152 8.59375 11.7188 8.59375L13.2812 8.59375C13.3848 8.59375 13.4842 8.55261 13.5574 8.47937C13.6307 8.40613 13.6719 8.30676 13.6719 8.20312L13.6719 6.64062C13.6719 6.53699 13.6307 6.43762 13.5574 6.36438C13.4842 6.29114 13.3848 6.25 13.2812 6.25L12.8906 6.25L12.8906 3.90625L13.2812 3.90625C13.3848 3.90625 13.4842 3.86511 13.5574 3.79187C13.6307 3.71863 13.6719 3.61926 13.6719 3.51562L13.6719 1.95312C13.6719 1.84949 13.6307 1.75012 13.5574 1.67688C13.4842 1.60364 13.3848 1.5625 13.2812 1.5625L11.7188 1.5625C11.6152 1.5625 11.5158 1.60364 11.4426 1.67688C11.3693 1.75012 11.3281 1.84949 11.3281 1.95312L11.3281 2.34375L8.20312 2.34375L8.20312 1.95312C8.20312 1.84949 8.16199 1.75012 8.08868 1.67688C8.01544 1.60364 7.91608 1.5625 7.8125 1.5625L6.25 1.5625C6.14642 1.5625 6.04706 1.60364 5.97382 1.67688C5.90051 1.75012 5.85938 1.84949 5.85938 1.95312L5.85938 3.51562C5.85938 3.61926 5.90051 3.71863 5.97382 3.79187C6.04706 3.86511 6.14642 3.90625 6.25 3.90625L6.64062 3.90625L6.64062 6.25L6.25 6.25C6.14642 6.25 6.04706 6.29114 5.97382 6.36438C5.90051 6.43762 5.85938 6.53699 5.85938 6.64062L5.85938 8.20312C5.85938 8.30676 5.90051 8.40613 5.97382 8.47937C6.04706 8.55261 6.14642 8.59375 6.25 8.59375ZM12.8906 7.8125L12.1094 7.8125L12.1094 7.03125L12.8906 7.03125L12.8906 7.8125ZM12.1094 2.34375L12.8906 2.34375L12.8906 3.125L12.1094 3.125L12.1094 2.34375ZM6.64062 2.34375L7.42188 2.34375L7.42188 3.125L6.64062 3.125L6.64062 2.34375ZM7.42188 3.90625L7.8125 3.90625C7.91608 3.90625 8.01544 3.86511 8.08868 3.79187C8.16199 3.71863 8.20312 3.61926 8.20312 3.51562L8.20312 3.125L11.3281 3.125L11.3281 3.51562C11.3281 3.61926 11.3693 3.71863 11.4426 3.79187C11.5158 3.86511 11.6152 3.90625 11.7188 3.90625L12.1094 3.90625L12.1094 6.25L11.7188 6.25C11.6152 6.25 11.5158 6.29114 11.4426 6.36438C11.3693 6.43762 11.3281 6.53699 11.3281 6.64062L11.3281 7.03125L8.20312 7.03125L8.20312 6.64062C8.20312 6.53699 8.16199 6.43762 8.08868 6.36438C8.01544 6.29114 7.91608 6.25 7.8125 6.25L7.42188 6.25L7.42188 3.90625ZM6.64062 7.03125L7.42188 7.03125L7.42188 7.8125L6.64062 7.8125L6.64062 7.03125Z" fill="#000000" fill-opacity="1.000000" fill-rule="nonzero"/>
	<path id="Vector" d="M6.25 19.5312L11.7188 19.5312L11.7188 20.3125L6.25 20.3125L6.25 19.5312Z" fill="#000000" fill-opacity="1.000000" fill-rule="nonzero"/>
	<path id="Vector" d="M20.6523 13.6094L19.5469 12.5039C19.5105 12.4675 19.4672 12.4388 19.4196 12.4193C19.372 12.3999 19.321 12.3901 19.2695 12.3906C19.2187 12.3901 19.1682 12.3999 19.1213 12.4194C19.0743 12.4388 19.0317 12.4677 18.9961 12.5039L13.7461 17.7539C13.7033 17.7966 13.6711 17.8488 13.6523 17.9062L13.375 18.7344C13.3527 18.803 13.3496 18.8765 13.3661 18.9468C13.3827 19.017 13.4182 19.0813 13.4688 19.1328L12.918 19.6875L13.4688 20.2383L14.0234 19.6875C14.0593 19.7235 14.1019 19.7521 14.1488 19.7715C14.1957 19.791 14.2461 19.8009 14.2969 19.8008C14.3393 19.8003 14.3813 19.7938 14.4219 19.7812L15.25 19.5039C15.3074 19.4851 15.3597 19.453 15.4023 19.4102L20.6523 14.1602C20.7251 14.087 20.7659 13.988 20.7659 13.8848C20.7659 13.7816 20.7251 13.6826 20.6523 13.6094ZM14.918 18.793L14.4062 18.9609L14.1914 18.75L14.3633 18.2383L18.1641 14.4375L18.7188 14.9883L14.918 18.793ZM19.2695 14.4375L18.7188 13.8867L19.2695 13.332L19.8242 13.8867L19.2695 14.4375Z" fill="#000000" fill-opacity="1.000000" fill-rule="nonzero"/>
</svg>
